<svg width="60" height="42" viewBox="0 0 60 42" fill="none" xmlns="http://www.w3.org/2000/svg">
<path d="M30 0C13.4316 0 0 9.40183 0 21C0 32.5982 13.4316 42 30 42C46.5684 42 60 32.5982 60 21C60 9.40183 46.5684 0 30 0ZM30 32.9849C27.5371 32.9849 25.5256 27.7341 25.3952 21.1244C26.8809 21.269 28.4214 21.3451 30 21.3451C31.5786 21.3451 33.1191 21.269 34.6048 21.1244C34.4744 27.7345 32.4625 32.9849 30 32.9849ZM25.7029 15.8798C26.3737 11.2081 28.0447 7.89851 30 7.89851C31.9553 7.89851 33.6263 11.2081 34.2971 15.8798C32.9228 16.0143 31.4835 16.0861 30 16.0861C28.5165 16.0861 27.0772 16.0148 25.7029 15.8798ZM30 3.04061C26.7787 3.04061 24.039 8.2522 23.0251 15.5252C16.9248 14.4942 12.6653 12.1519 12.6653 9.42719C12.6653 5.74955 20.4264 2.76828 30 2.76828C39.5736 2.76828 47.3347 5.74955 47.3347 9.42719C47.3347 12.1514 43.0752 14.4938 36.9749 15.5252C35.961 8.25268 33.2213 3.04061 30 3.04061ZM4.30151 20.2122C4.30151 16.6533 5.56569 13.3178 7.77216 10.4481C7.74696 10.6496 7.73325 10.852 7.73325 11.0564C7.73325 15.5429 13.9476 19.3584 22.6161 20.7655C22.6094 21.0909 22.6059 21.4188 22.6059 21.7485C22.6059 30.1056 24.7717 37.1828 27.7604 39.583C14.6166 38.7249 4.30151 30.3798 4.30151 20.2122ZM32.2392 39.583C35.2279 37.1828 37.3937 30.1056 37.3937 21.7485C37.3937 21.4188 37.3901 21.0909 37.3835 20.7655C46.0519 19.3579 52.2663 15.5424 52.2663 11.0564C52.2663 10.852 52.253 10.6496 52.2274 10.4481C54.4339 13.3173 55.6981 16.6533 55.6981 20.2122C55.6985 30.3798 45.3834 38.7249 32.2392 39.583Z" fill="black"/>
</svg>
